# xmcd
#
# Track frame offsets: 
#        150
#        16512
#        30032
#        45869
#        60283
#
# Disc length: 982 seconds
#
# Revision: 0
# Processed by: cddbd v1.5.2PL0 Copyright (c) Steve Scherf et al.
# Submitted via: ExactAudioCopy v1.0b1
#
DISCID=1d03d405
DTITLE=Marcia Ramirez - Beautifully Lived
DYEAR=2010
DGENRE=Country
TTITLE0=Beautifully Lived
TTITLE1=Umbrella
TTITLE2=Dancin'
TTITLE3=Myself and My God
TTITLE4=You Belong In the Sun
EXTD=
EXTT0=
EXTT1=
EXTT2=
EXTT3=
EXTT4=
PLAYORDER=
